<?xml version="1.0" standalone="no"?>
<!DOCTYPE svg PUBLIC "-//W3C//DTD SVG 20010904//EN"
 "http://www.w3.org/TR/2001/REC-SVG-20010904/DTD/svg10.dtd">
<svg version="1.0" xmlns="http://www.w3.org/2000/svg"
 width="186.000000pt" height="186.000000pt" viewBox="0 0 186.000000 186.000000"
 preserveAspectRatio="xMidYMid meet">
<metadata>
Created by potrace 1.14, written by Peter Selinger 2001-2017
</metadata>
<g transform="translate(0.000000,186.000000) scale(0.100000,-0.100000)"
fill="#000000" stroke="none">
<path d="M193 1654 c-18 -9 -43 -33 -55 -53 -23 -36 -23 -40 -26 -451 -2 -273
0 -427 7 -451 17 -58 47 -87 107 -105 42 -12 54 -20 54 -35 0 -33 29 -92 63
-128 102 -107 282 -107 384 0 34 36 63 95 63 128 0 27 18 31 145 31 127 0 145
-4 145 -31 0 -33 29 -92 63 -128 102 -107 282 -107 384 0 34 36 63 95 63 128
0 22 18 31 62 31 45 0 87 29 99 70 13 45 0 81 -40 111 l-31 23 0 145 c0 121
-4 153 -19 186 -23 48 -254 279 -294 295 -16 5 -59 10 -96 10 l-68 0 -5 69
c-6 82 -32 131 -82 155 -30 14 -89 16 -463 16 -372 0 -432 -3 -460 -16z m1190
-513 c49 -50 86 -94 82 -100 -4 -7 -54 -11 -136 -11 l-129 0 0 100 0 100 47 0
c46 0 49 -2 136 -89z m-781 -471 c26 -27 30 -36 25 -68 -18 -108 -166 -108
-184 0 -5 32 -1 41 25 68 23 22 40 30 67 30 27 0 44 -8 67 -30z m800 0 c26
-27 30 -36 25 -68 -18 -108 -166 -108 -184 0 -5 32 -1 41 25 68 23 22 40 30
67 30 27 0 44 -8 67 -30z"/>
</g>
</svg>
