<?xml version="1.0" standalone="no"?>
<!DOCTYPE svg PUBLIC "-//W3C//DTD SVG 20010904//EN"
 "http://www.w3.org/TR/2001/REC-SVG-20010904/DTD/svg10.dtd">
<svg version="1.0" xmlns="http://www.w3.org/2000/svg"
 width="512.000000pt" height="512.000000pt" viewBox="0 0 512.000000 512.000000"
 preserveAspectRatio="xMidYMid meet">
<metadata>
Created by potrace 1.14, written by Peter Selinger 2001-2017
</metadata>
<g transform="translate(0.000000,512.000000) scale(0.100000,-0.100000)"
fill="#000000" stroke="none">
<path d="M2420 4309 c-123 -19 -189 -37 -289 -78 -270 -110 -507 -352 -611
-624 -54 -142 -73 -241 -74 -392 -2 -211 29 -346 118 -522 70 -141 220 -318
329 -393 20 -14 37 -27 37 -30 0 -3 -35 -22 -78 -43 -508 -246 -858 -777 -887
-1344 l-5 -83 160 0 c145 0 160 2 161 18 6 119 17 204 35 277 112 459 461 817
915 939 118 31 221 43 358 40 128 -2 181 -9 284 -35 558 -141 948 -630 966
-1211 l1 -28 161 0 161 0 -6 98 c-3 53 -8 108 -11 122 -3 14 -7 36 -10 50 -2
14 -7 39 -10 56 -8 52 -54 202 -81 267 -91 219 -193 370 -368 542 -119 118
-241 207 -383 281 -48 25 -91 48 -95 51 -5 2 25 30 65 62 188 149 323 362 384
605 40 155 38 394 -4 546 -69 251 -212 462 -421 620 -123 92 -330 180 -487
205 -59 10 -263 13 -315 4z m344 -339 c213 -53 402 -204 504 -401 38 -74 53
-116 78 -221 15 -61 12 -240 -6 -322 -51 -232 -206 -433 -416 -539 -52 -26
-147 -61 -200 -72 -50 -11 -236 -14 -295 -4 -306 50 -556 276 -639 579 -35
126 -33 311 3 432 78 257 270 455 521 538 127 41 308 46 450 10z"/>
</g>
</svg>
